<svg xmlns="http://www.w3.org/2000/svg" viewBox="0 0 256.93 180.23"><defs><style>.cls-1{fill:#00d995;}.cls-2{fill:#00d7ff;fill-rule:evenodd;}</style></defs><title>eh-canteen-logo</title><g id="Layer_2" data-name="Layer 2"><g id="Layer_1-2" data-name="Layer 1"><path class="cls-1" d="M128.29,0c37.26-.94,71.79,26.16,79.43,65.56,8.14,42-19.83,84.45-61.33,93.31a8.18,8.18,0,0,0-6.15,4.34c-2.4,4.52-5,8.93-7.58,13.37-2.77,4.84-5.61,4.85-8.61-.06-2.67-4.38-5.4-8.75-7.74-13.31a7.65,7.65,0,0,0-5.57-4.25C76.83,150.9,52.67,125.3,48.36,91c-5.65-44.92,24.57-82.82,66-90A84.31,84.31,0,0,1,128.29,0Zm-.18,151.14c38.29,1.23,71.2-32,71.21-70.54C199.34,43,169,9.44,128.24,9.34c-39-.09-71,31.92-70.92,71C57.34,121,90.82,151.94,128.11,151.16Z"/><path class="cls-1" d="M231.92,74.68C221,71,217,64.21,218.22,50.62c.93-10.25,2.71-20.39,7.87-29.56a27.5,27.5,0,0,1,3.4-4.88c4.77-5.33,10.49-5.47,15.6-.44,5.71,5.62,7.75,13.07,9.46,20.47A83,83,0,0,1,256.91,57c-.19,7.75-3.65,13.42-10.71,16.49-2.29,1-2.88,2-2.78,4.33.92,22.26,1.69,44.54,2.54,66.8.14,3.66.3,7.32.61,11,.49,5.78-2.82,10.13-8,10.41-5.53.31-9.48-3.27-9.31-9.18.45-14.79,1.48-29.57,1.77-44.36C231.22,99.93,232.83,87.5,231.92,74.68Z"/><path class="cls-1" d="M25,74.77c.48,12.48,1,25.08,1.44,37.68.54,15.12,1.11,30.24,1.45,45.37C28,163.06,24.6,166,19.37,166s-8.44-3.15-8.29-8.44c.44-15.62,1.15-31.23,1.75-46.84.41-10.8.74-21.6,1.27-32.39.14-2.81-.77-3.88-3.54-4.78C4,71.38.05,65.22,0,58.17c0-13.49,0-27,0-40.47,0-2.47-.47-5.59,3.24-5.46,3.14.11,3.67,2.67,3.65,5.45-.06,12.49,0,25,0,37.47,0,8.6,3.27,12.22,11.23,12.49,9.23.3,13.26-3,13.45-11.92.25-12,0-24,.15-36,0-2.8-1.64-7.43,3.22-7.43s3.83,4.51,3.85,7.7c.06,11.32,0,22.65,0,34S35.41,70.37,25,74.77Z"/><path class="cls-1" d="M22.8,36.14q0,9.7,0,19.42c0,2.64-.23,5.19-3.69,5.28s-3.29-2.61-3.3-4.92c0-12.94,0-25.89,0-38.83,0-2.52.35-5,3.46-4.85,2.85.12,3.61,2.34,3.58,5C22.74,23.53,22.79,29.84,22.8,36.14Z"/><path id="Fill-1" class="cls-2" d="M161.26,96.29a4.92,4.92,0,0,1,4.27,2.51,4.66,4.66,0,0,1-.06,4.73l-.05.07a44.4,44.4,0,0,1-27,19.43,6.78,6.78,0,0,0-5.13,6.66,6.69,6.69,0,0,0,6.65,6.72,6.77,6.77,0,0,0,1.55-.18,58,58,0,0,0,31.59-20.07,57.43,57.43,0,0,0,0-71.79,57.9,57.9,0,0,0-31.59-20.06,6.27,6.27,0,0,0-1.55-.19,6.69,6.69,0,0,0-6.65,6.71,6.78,6.78,0,0,0,5.13,6.67,44.37,44.37,0,0,1,27,19.4l.08.12a4.64,4.64,0,0,1,.05,4.71,4.92,4.92,0,0,1-4.27,2.51,4.84,4.84,0,0,1-2.07-.46,17.93,17.93,0,0,0-7.7-1.72,18.19,18.19,0,0,0-18.15,17.15v.11a6.24,6.24,0,0,0,0,.72v.14a.28.28,0,0,1,0,.09.19.19,0,0,1,0,.08v.14a6.24,6.24,0,0,0,0,.72v.11a18.19,18.19,0,0,0,18.15,17.15,17.93,17.93,0,0,0,7.7-1.72,4.84,4.84,0,0,1,2.07-.46"/><path id="Fill-2" class="cls-2" d="M117,24.12a6.24,6.24,0,0,0-1.54.19A57.87,57.87,0,0,0,83.85,44.37a57.43,57.43,0,0,0,0,71.79,57.94,57.94,0,0,0,31.59,20.07,6.78,6.78,0,0,0,3.07-13.2,44.42,44.42,0,0,1-27-19.4l-.06-.1a4.64,4.64,0,0,1-.06-4.73,4.92,4.92,0,0,1,4.27-2.51,4.84,4.84,0,0,1,2.07.46,17.93,17.93,0,0,0,7.7,1.72,18.19,18.19,0,0,0,18.15-17.15v-.11a6.24,6.24,0,0,0,0-.72V80a6.24,6.24,0,0,0,0-.72v-.11a18.19,18.19,0,0,0-18.15-17.15,17.93,17.93,0,0,0-7.7,1.72,4.84,4.84,0,0,1-2.07.46,4.92,4.92,0,0,1-4.27-2.51A4.64,4.64,0,0,1,91.46,57h0v0l0-.07a44.42,44.42,0,0,1,27-19.4,6.78,6.78,0,0,0,5.13-6.66A6.69,6.69,0,0,0,117,24.12"/></g></g></svg>