<?xml version="1.0" encoding="utf-8"?>
<!-- Generator: Adobe Illustrator 23.0.2, SVG Export Plug-In . SVG Version: 6.00 Build 0)  -->
<svg version="1.1" id="Layer_1" xmlns="http://www.w3.org/2000/svg" xmlns:xlink="http://www.w3.org/1999/xlink" x="0px" y="0px"
	 viewBox="0 0 1200 1200" style="enable-background:new 0 0 1200 1200;" xml:space="preserve">
<style type="text/css">
	.st0{fill:#DFDFDF;}
	.st1{fill:#F3F3F3;}
	.st2{fill:none;stroke:#F3F3F3;stroke-width:6;stroke-miterlimit:10;}
	.st3{fill:none;stroke:#DFDFDF;stroke-width:11;stroke-miterlimit:10;stroke-dasharray:22;}
	.st4{fill:#DE8E68;}
	.st5{fill:#56CAD8;}
	.st6{fill:#FCC486;}
	.st7{fill:#FED385;}
	.st8{fill:#FED892;}
	.st9{fill:#333333;}
	.st10{fill:#D37C59;}
	.st11{fill:#74D5DE;}
</style>
<title>Artboard 1</title>
<g id="Backgrund">
	<rect x="1005.5" y="182.5" class="st0" width="137" height="188"/>
	<rect x="1005.5" y="182.5" class="st1" width="137" height="13"/>
	<rect x="141" y="257" class="st1" width="334" height="107"/>
	<circle class="st0" cx="195.5" cy="309.5" r="35"/>
	<rect x="254.5" y="276.5" class="st0" width="196" height="12"/>
	<rect x="254.5" y="304.5" class="st0" width="66" height="12"/>
	<polyline class="st2" points="218.9,295.4 190,324.3 178.1,312.4 	"/>
	<rect x="141" y="388" class="st1" width="334" height="107"/>
	<circle class="st0" cx="195.5" cy="440.5" r="35"/>
	<rect x="254.5" y="407.5" class="st0" width="196" height="12"/>
	<rect x="254.5" y="435.5" class="st0" width="66" height="12"/>
	<polyline class="st2" points="218.9,426.4 190,455.3 178.1,443.4 	"/>
	<rect x="141" y="519" class="st1" width="334" height="107"/>
	<circle class="st0" cx="195.5" cy="571.5" r="35"/>
	<rect x="254.5" y="538.5" class="st0" width="196" height="12"/>
	<rect x="254.5" y="566.5" class="st0" width="66" height="12"/>
	<polyline class="st2" points="218.9,557.4 190,586.3 178.1,574.3 	"/>
	<rect x="978.5" y="213.5" class="st1" width="137" height="188"/>
	<rect x="978.5" y="213.5" class="st0" width="137" height="13"/>
	<rect x="993.5" y="249.5" class="st0" width="108" height="9"/>
	<rect x="993.5" y="267.5" class="st0" width="108" height="9"/>
	<rect x="993.5" y="285.5" class="st0" width="108" height="9"/>
	<path class="st3" d="M752.5,469.5c0-10,18-26,49-26c38,0,90,81,148,81c40,0,95-33,95-93"/>
</g>
<g id="Vector">
	<path class="st4" d="M454,567c-2,7-34,176,21,333c9,2,8-23,8-23l-10-215l5-81L454,567z"/>
	<path class="st5" d="M604,1196h-97c0,0-33-341-33-348c6,6,5,8,30,15c15,16,121,282,121,282L604,1196z"/>
	<path class="st6" d="M555.8,440c46.7,13.4,9.8,156.1-7.5,168.1s-98.4-21.7-104.9-36.8S489.6,421.1,555.8,440z"/>
	<path class="st7" d="M598,402c149,0,152,428,131,446s-236,35-255,0S436,402,598,402z"/>
	<path class="st8" d="M652,431c39-29,130,87,129,108s-77,65-93,61S596.8,472.1,652,431z"/>
	<path class="st4" d="M767,543c37,61,47,142,47,156c0,38-19,57-31,57c-48,0-206-122-217-132s21-40,26-35s62,41,145,77
		c-12-15-47-60-48-74S767,543,767,543z"/>
	
		<rect x="489.7" y="517.9" transform="matrix(0.9888 -0.1492 0.1492 0.9888 -79.5103 84.1773)" class="st9" width="63.2" height="108.3"/>
	<ellipse transform="matrix(0.5 -0.866 0.866 0.5 -234.8028 779.3113)" class="st4" cx="557.5" cy="593" rx="27" ry="37.5"/>
	<path class="st10" d="M624,421c0,13-52,14-52,0v-79h52V421z"/>
	<ellipse class="st4" cx="584.5" cy="297.5" rx="51.5" ry="91.5"/>
	<circle class="st4" cx="632.5" cy="310.5" r="13.5"/>
	<path d="M808,193c-39,0-71,28-113,28c-30,0-59-36-101-36c-54,0-71,29-71,49c0,16,10,34,13,34c0-5,6-23,8-25c2,7,44,56,81,56v0.3
		c6.2-4.1,14.6-2.5,18.7,3.7c4.1,6.2,2.5,14.6-3.7,18.7c-4.5,3-10.5,3-15,0V351h10c13,0,19-5,39-5c35,0,84,43,144,43
		c65,0,92-49,92-104C910,212,841,193,808,193z"/>
	<path class="st11" d="M729,848v348H604L503.9,862.8C539,869,672,874,729,848z"/>
</g>
</svg>
