<svg xmlns="http://www.w3.org/2000/svg" viewBox="0 0 302.51 302.51"><defs><style>.cls-1{fill:#f9ca24;}.cls-2{fill:#515151;}</style></defs><title>lunchery-logo</title><g id="Layer_2" data-name="Layer 2"><g id="Layer_1-2" data-name="Layer 1"><rect class="cls-1" width="302.51" height="302.51" rx="75.63"/><g id="JhVWjF.tif"><path class="cls-2" d="M268.56,96.49s0,7.87-1.12,10.31c-1.17,8.14-9.69,24.87-14.41,30.43-11.34,13.36-25.41,22.63-41.93,28.49-3.36,1.61-21.38,2.39-29.65,13.79a2,2,0,0,0,.19,2.92c2.91,2.38,27.12,11.08,34.84,17.7,9.37,7.72,14.37,17.31,14.23,27.14-.25,17.52-15.25,22.12-15.25,22.12a33.76,33.76,0,0,1-11.47,2c-8.26-.33-11.41-.43-19.64-4.94-8.84-4.19-16.51-11.5-23.28-20-2.72-3.41-4.06-6.06-6.71-8.62a1.87,1.87,0,0,0-.49-.34c-3.17-1.55-5.24.32-7,2.62-4.72,6.18-21.42,26.38-41.15,31.47-3.77,1-13.19,1.09-19.81-1.48-7.8-3.53-13.13-15.29-12-24.42.87-9.66,7.46-21.3,18.73-26.14,6.33-2.71,26.45-12.78,29.61-15.92a2.3,2.3,0,0,0,.94-2.09c-1.55-6.71-9.27-13.45-13.51-13.27-3.06,0-6.38-.19-9.68.05-10.66.78-19-4.25-27-10.31-9.71-7.29-16.66-17.26-25.34-25.55-5.49-5.81-8.7-11.74-11.48-18.69a35.47,35.47,0,0,1-2-7.3c-.94-5.7,2.65-12,8.12-13.86a33,33,0,0,1,7.91-1.48s-.8-4.66-.78-5.05c.39-8.23,4.87-15.55,14.18-15.62,0,0,0,0,.07,0,1.46-.64,2.24-4.91,3.33-6.81a1.76,1.76,0,0,1,.29-.37c5.42-5.65,14.61-5.23,17.35-4.41h.05c9,3.06,22.32,18.2,32.74,35.62a77.92,77.92,0,0,1,11.07,38.94c.06,2.26-4,2.83-4.7.66-.87-2.72-5.69-22.24-9.47-27.9-2.68-6-6.59-11.53-10.7-17A151.82,151.82,0,0,0,91.05,74.24,39.83,39.83,0,0,0,81.67,67a1.85,1.85,0,0,0-.65-.22c-3.66-.5-5.61.9-6.64,3.69v0A6.26,6.26,0,0,0,75,73.92c4.35,9.9,11.46,18,17.22,27.05,2.39,3.73,4.74,7.49,5.69,11a1.76,1.76,0,0,1,.07.6c-.11,2.61-1.48,3.67-3.31,3.93-2.23-.16-3.6-1.26-6.66-5.14-7.2-9.67-12.87-20.56-22-28.84-.14-.13-1.58-.76-1.58-.76s-2.68-.81-4.54.57c-2.49.93-2.69,5.74-2.66,5.88,2,9.86,14.09,23.32,24.45,33.4a1.91,1.91,0,0,1,.59,1.26,16.63,16.63,0,0,1,0,4.62A1.92,1.92,0,0,1,80.3,129H76.23a1.94,1.94,0,0,1-1.26-.46c-10.63-9.19-19.57-30-28.81-30a4.52,4.52,0,0,0-3.36,1.76c-4.66,4.18,4.48,17,10.3,24,4.48,5.34,9.29,10.47,14,15.61,5.83,6.41,13.25,11.46,20.4,16.51,2.28,1.61,5.57,2.17,8.84,2.29,5.31.18,10.51-.63,16,1.14,8,2.57,13.31,8,18.44,13.7,3,3.32,4.61,6.08,7.5,10.28,2.36,3.41,7.63,9.48,10.72,13.42,4.56,5.79,9.28,11.49,14.29,16.83,10.07,10.75,20.88,23.29,36,26.55,3,.4,8.25,1.51,13.36-.5,4.88-2.48,6.77-6.67,6.88-8.72,1.18-10.72-4.44-19.31-12.43-25.28-5.57-4.17-16.61-8.65-22.85-11.72-14.05-6.92-23.5-12.51-34.1-23.87a2,2,0,0,1,2.39-3c5.83,3.34,11.63,6.92,18.09,9.88a3.31,3.31,0,0,0,2.89-.39,12.41,12.41,0,0,0,2.9-3.67c4.93-5.47,8.14-8.43,14.15-11.21,7.27-3.36,15.09-4.35,22.47-7.07,5-1.85,9.85-4.19,13.49-7.32,13.64-11.74,26.3-25.2,29.29-44.05,1.92-12.13.83-15.08-1.5-23.51-1.36-4.92-5.81-10.21-9.15-13.48-1.37-1.36-11.31-11.4-25.39-4.5-16.12,7.61-32.31,24.15-37.75,37.69a78,78,0,0,0-8.79,40.1c0,.56-1.34,2.24-1.74,2.62l0,0a2,2,0,0,1-3.3-1.38c-1-9.11-1.14-19.77.44-27.76,2.52-12.73,8-23.67,15.81-34.13a125.84,125.84,0,0,1,10.9-12.11c6.73-5.57,19-14,28.84-15.77a34.33,34.33,0,0,1,24.1,2.44c6,3.06,10.4,7.69,13.91,13.57,4,4.73,6,20.12,6,20.12ZM130.74,190.94a2.22,2.22,0,0,0-2.29-.19c-24.83,7.25-49.89,27.11-42.6,41.57,2.35,8,17.88,9.12,30.63,2.77,14.58-8.84,14.39-11.07,25.85-23.51.59-.64,1.47-3.49,1-4.21C138.94,201.09,136.36,196.31,130.74,190.94Z"/></g></g></g></svg>